<?xml version="1.0" encoding="UTF-8"?>
<svg width="45px" height="31px" viewBox="0 0 45 31" version="1.1" xmlns="http://www.w3.org/2000/svg" xmlns:xlink="http://www.w3.org/1999/xlink">
    <!-- Generator: Sketch 55.1 (78136) - https://sketchapp.com -->
    <title>SecurePayment</title>
    <desc>Created with Sketch.</desc>
    <g id="Page-1" stroke="none" stroke-width="1" fill="none" fill-rule="evenodd">
        <g id="Desktop-Quiz-payment-info" transform="translate(-831.000000, -556.000000)" fill-rule="nonzero">
            <g id="SecurePayment" transform="translate(831.000000, 556.000000)">
                <path d="M32.62,0.47 L4.41,0.47 C2.14239062,0.475497259 0.305497259,2.31239062 0.3,4.58 L0.3,19.24 C0.305497259,21.5076094 2.14239062,23.3445027 4.41,23.35 L28.35,23.35 L28.35,22.15 L4.41,22.15 C2.806758,22.1444905 1.50999053,20.8432515 1.51,19.24 L1.51,11.05 L35.51,11.05 L35.51,15.71 L36.72,15.71 L36.72,4.58 C36.72,2.31400919 34.8859841,0.47551336 32.62,0.47 Z M1.51,6.29 L1.51,4.58 C1.51,2.97837423 2.80837423,1.68 4.41,1.68 L32.62,1.68 C34.2216258,1.68 35.52,2.97837423 35.52,4.58 L35.52,6.29 L1.51,6.29 Z" id="Shape" fill="#264B67"></path>
                <path d="M13.53,3.64 C13.3,3.57 13.09,3.51 13.09,3.37 L13.09,3.37 C13.09,3.26 13.19,3.18 13.36,3.18 C13.5211747,3.18809023 13.6784319,3.23253246 13.82,3.31 L13.91,3.31 C14.0094113,3.31 14.09,3.22941125 14.09,3.13 C14.0816567,3.07510471 14.0484452,3.02713244 14,3 C13.8130352,2.89702143 13.6034391,2.84204539 13.39,2.84 C13.2172475,2.82031143 13.0441663,2.87406642 12.9129624,2.98815676 C12.7817585,3.10224709 12.7044904,3.26618717 12.7,3.44 L12.7,3.44 C12.7,3.82 13.02,3.93 13.31,4.02 C13.6,4.11 13.74,4.14 13.74,4.29 L13.74,4.29 C13.74,4.42 13.63,4.5 13.44,4.5 C13.2391911,4.49053071 13.0451116,4.42468232 12.88,4.31 C12.8474205,4.29997436 12.8125795,4.29997436 12.78,4.31 C12.6805887,4.31 12.6,4.39058875 12.6,4.49 C12.5985056,4.55577314 12.6330143,4.61712192 12.69,4.65 C12.9086315,4.79787348 13.1660647,4.8778865 13.43,4.88 C13.83,4.88 14.15,4.68 14.15,4.27 L14.15,4.27 C14.13,3.86 13.81,3.73 13.53,3.64 Z" id="Path" fill="#264B67"></path>
                <path d="M15.44,2.79999791 C14.8877153,2.79999791 14.44,3.24771525 14.44,3.79999791 L14.44,3.79999791 C14.4250499,4.20919096 14.6610671,4.586153 15.035693,4.75142913 C15.4103189,4.91670525 15.8478521,4.8368978 16.14,4.55 C16.1809567,4.51540502 16.2031945,4.46351693 16.2,4.41 C16.2027574,4.36320698 16.1860715,4.3173519 16.1538866,4.28327374 C16.1217017,4.24919559 16.0768741,4.22991883 16.03,4.23 C15.9908514,4.21832816 15.9491486,4.21832816 15.91,4.23 C15.7847451,4.34455478 15.6196484,4.40556876 15.45,4.4 C15.2062557,4.39930633 14.9931922,4.23541138 14.93,4 L16.15,4 C16.2074722,4.0000652 16.2624597,3.97657288 16.3021429,3.93500004 C16.3418261,3.8934272 16.3627368,3.83740701 16.36,3.78 C16.3766154,3.52578216 16.287073,3.2760557 16.1127059,3.09031688 C15.9383389,2.90457806 15.6947597,2.7994576 15.44,2.79999791 Z M14.93,3.68 C14.9351001,3.4043266 15.1544816,3.18055746 15.43,3.17 C15.7077523,3.17544717 15.9300534,3.40219425 15.93,3.68 L14.93,3.68 Z" id="Shape" fill="#264B67"></path>
                <path d="M18.3,4.23 C18.2608514,4.21832816 18.2191486,4.21832816 18.18,4.23 C18.0624677,4.345158 17.9045453,4.40976263 17.74,4.41 C17.5780823,4.4076291 17.4242564,4.33881117 17.3145763,4.21967583 C17.2048961,4.10054049 17.149004,3.9415613 17.16,3.78 L17.16,3.78 C17.1518616,3.62180697 17.2076754,3.46698587 17.3148819,3.35037527 C17.4220884,3.23376467 17.5716818,3.16516036 17.73,3.16 C17.8814575,3.16230953 18.0270124,3.21911145 18.14,3.32 C18.1808057,3.34993714 18.2294616,3.36731424 18.28,3.37 C18.3348223,3.37006857 18.3872693,3.34763009 18.4250778,3.30793119 C18.4628862,3.26823229 18.4827412,3.21475372 18.48,3.16 C18.4808178,3.10192948 18.4550319,3.046674 18.41,3.01 C18.2258431,2.83915423 17.9809657,2.74912577 17.73,2.76 C17.1777153,2.76 16.73,3.20771525 16.73,3.76 L16.73,3.76 C16.73,4.31228475 17.1777153,4.76 17.73,4.76 C17.9958274,4.77255038 18.2542958,4.6706192 18.44,4.48 C18.4809567,4.44540502 18.5031945,4.39351693 18.5,4.34 C18.4680762,4.26034779 18.3843641,4.21430616 18.3,4.23 L18.3,4.23 Z" id="Path" fill="#264B67"></path>
                <path d="M20.44,2.81999988 C20.3129745,2.81999988 20.21,2.92297451 20.21,3.05 L20.21,4 C20.2245966,4.12418865 20.184411,4.24857998 20.099916,4.34075633 C20.015421,4.43293267 19.8949869,4.48376285 19.77,4.48 C19.51,4.48 19.35,4.31 19.35,4 L19.35,3.1 C19.3527329,3.03993982 19.3307665,2.98137781 19.2892086,2.9379309 C19.2476507,2.89448399 19.1901223,2.86993786 19.13,2.87 C19.0698777,2.86993786 19.0123493,2.89448399 18.9707914,2.9379309 C18.9292335,2.98137781 18.9072671,3.03993982 18.91,3.1 L18.91,4.1 C18.8860583,4.29378173 18.9491489,4.48821877 19.0823063,4.63102522 C19.2154637,4.77383166 19.4050153,4.85034863 19.6,4.84 C19.8509918,4.84997488 20.0864777,4.71872043 20.21,4.5 L20.21,4.6 C20.2099379,4.66012229 20.234484,4.71765069 20.2779309,4.7592086 C20.3213778,4.80076652 20.3799398,4.82273287 20.44,4.81999988 C20.5615026,4.81999988 20.66,4.72150264 20.66,4.6 L20.66,3.05 C20.6627329,2.98993982 20.6407665,2.93137781 20.5992086,2.8879309 C20.5576507,2.84448399 20.5001223,2.81993786 20.44,2.81999988 Z" id="Path" fill="#264B67"></path>
                <path d="M22.16,2.82 C21.9262524,2.85435969 21.7344283,3.02269508 21.67,3.25 L21.67,3.05 C21.6894369,2.95831062 21.6512924,2.86399832 21.5735797,2.81160102 C21.495867,2.75920371 21.394133,2.75920371 21.3164203,2.81160102 C21.2387076,2.86399832 21.2005631,2.95831062 21.22,3.05 L21.22,4.59 C21.22,4.71150264 21.3184974,4.81 21.44,4.81 C21.5000602,4.81273287 21.5586222,4.79076652 21.6020691,4.7492086 C21.645516,4.70765069 21.6700621,4.65012229 21.67,4.59 L21.67,4 C21.67,3.53 21.89,3.29 22.2,3.23 C22.2551294,3.22512479 22.305774,3.19762322 22.3398833,3.15403912 C22.3739926,3.11045502 22.3885168,3.05468529 22.38,3 C22.3749532,2.94684915 22.3488646,2.8979225 22.3075431,2.86411399 C22.2662216,2.83030548 22.2130977,2.81442194 22.16,2.82 Z" id="Path" fill="#264B67"></path>
                <path d="M23.53,2.8 C22.9777153,2.8 22.53,3.24771525 22.53,3.8 L22.53,3.8 C22.5150499,4.20919096 22.7510671,4.586153 23.125693,4.75142913 C23.5003189,4.91670525 23.9378521,4.8368978 24.23,4.55 C24.2709567,4.51540502 24.2931945,4.46351693 24.29,4.41 C24.2927574,4.36320698 24.2760715,4.3173519 24.2438866,4.28327374 C24.2117017,4.24919559 24.1668741,4.22991883 24.12,4.23 C24.0808514,4.21832816 24.0391486,4.21832816 24,4.23 C23.8747451,4.34455478 23.7096484,4.40556876 23.54,4.4 C23.2888555,4.40855313 23.0650037,4.24273693 23,4 L24.22,4 C24.2774722,4.0000652 24.3324597,3.97657288 24.3721429,3.93500004 C24.4118261,3.8934272 24.4327368,3.83740701 24.43,3.78 C24.4464385,3.52922094 24.3595699,3.28263338 24.1895777,3.09753071 C24.0195854,2.91242804 23.781269,2.80492522 23.53,2.8 Z M23,3.68 C23.0051001,3.4043266 23.2244816,3.18055746 23.5,3.17 C23.7777523,3.17544717 24.0000534,3.40219425 24,3.68 L23,3.68 Z" id="Shape" fill="#264B67"></path>
                <path d="M11.69,12.64 C11.4136405,12.6344065 11.1535079,12.7701279 11,13 L11,12.88 C11.0194369,12.7883106 10.9812924,12.6939983 10.9035797,12.641601 C10.825867,12.5892037 10.724133,12.5892037 10.6464203,12.641601 C10.5687076,12.6939983 10.5305631,12.7883106 10.55,12.88 L10.55,15 C10.5499379,15.0601223 10.574484,15.1176507 10.6179309,15.1592086 C10.6613778,15.2007665 10.7199398,15.2227329 10.78,15.22 C10.9015026,15.22 11,15.1215026 11,15 L11,14.31 C11.1518651,14.5301128 11.4025838,14.6610852 11.67,14.66 C11.9230433,14.6497532 12.1612471,14.5378364 12.3306629,14.3495966 C12.5000787,14.1613568 12.5863723,13.9127209 12.57,13.66 L12.57,13.66 C12.5920487,13.4072661 12.5110054,13.1563506 12.3452842,12.9642646 C12.179563,12.7721786 11.943236,12.6552333 11.69,12.64 L11.69,12.64 Z M12.14,13.64 C12.1568993,13.7995417 12.105781,13.9588183 11.9991943,14.0787283 C11.8926076,14.1986383 11.7404227,14.2680779 11.58,14.27 C11.4198389,14.2649422 11.2686241,14.1949572 11.1611163,14.0761328 C11.0536086,13.9573084 10.9990564,13.7998668 11.01,13.64 L11.01,13.64 C10.9990564,13.4801332 11.0536086,13.3226916 11.1611163,13.2038672 C11.2686241,13.0850428 11.4198389,13.0150578 11.58,13.01 C11.7393922,13.0148987 11.8897359,13.0852078 11.9956803,13.2043952 C12.1016248,13.3235827 12.1538225,13.4811327 12.14,13.64 L12.14,13.64 Z" id="Shape" fill="#264B67"></path>
                <path d="M13.83,12.66 C13.614913,12.6562362 13.4010851,12.6935712 13.2,12.77 C13.1282015,12.8013226 13.0812984,12.8716773 13.08,12.95 C13.08,13.0549341 13.1650659,13.14 13.27,13.14 L13.34,13.14 C13.4785114,13.0931903 13.6237934,13.0695397 13.77,13.07 C14.08,13.07 14.25,13.22 14.25,13.49 L14.25,13.49 C14.0825387,13.4337032 13.906639,13.4066417 13.73,13.41 C13.25,13.41 12.92,13.62 12.92,14.04 L12.92,14.04 C12.9247427,14.2145213 13.0016933,14.3792493 13.1324936,14.4948843 C13.2632938,14.6105193 13.436214,14.6666916 13.61,14.65 C13.8566403,14.6572043 14.0928049,14.5501922 14.25,14.36 L14.25,14.44 C14.2719471,14.541178 14.361469,14.6133631 14.465,14.6133631 C14.568531,14.6133631 14.6580529,14.541178 14.68,14.44 L14.68,13.44 C14.6996762,13.2190899 14.6231429,13.0004234 14.47,12.84 C14.2899519,12.6955986 14.0589236,12.6306219 13.83,12.66 L13.83,12.66 Z M14.26,13.93 C14.26,14.18 14.04,14.35 13.74,14.35 C13.44,14.35 13.36,14.24 13.36,14.06 L13.36,14.06 C13.36,13.85 13.53,13.73 13.82,13.73 C13.9701308,13.7316404 14.1189002,13.7586893 14.26,13.81 L14.26,13.93 Z" id="Shape" fill="#264B67"></path>
                <path d="M16.7,12.66 C16.6005856,12.6652469 16.5158319,12.7338571 16.49,12.83 L16,14.13 L15.48,12.83 C15.4530916,12.7304068 15.3631602,12.6609143 15.26,12.66 C15.1384974,12.66 15.04,12.7584974 15.04,12.88 C15.0352907,12.9165155 15.0352907,12.9534845 15.04,12.99 L15.77,14.61 L15.77,14.61 C15.7,14.76 15.63,14.81 15.49,14.81 L15.34,14.81 L15.26,14.81 C15.2104768,14.8099235 15.1631099,14.8302542 15.1290505,14.8662057 C15.0949912,14.9021573 15.0772486,14.9505532 15.08,15 C15.0814718,15.0844479 15.1385128,15.1577863 15.22,15.18 C15.3175198,15.2230151 15.423473,15.2435221 15.53,15.24 C15.84,15.24 16.02,15.09 16.19,14.69 L16.9,13 C16.9065574,12.9636265 16.9065574,12.9263735 16.9,12.89 C16.9058418,12.7720901 16.8175788,12.6705876 16.7,12.66 L16.7,12.66 Z" id="Path" fill="#264B67"></path>
                <path d="M19.62,12.64 C19.366666,12.6505999 19.1347885,12.7852384 19,13 C18.887748,12.7788832 18.6578651,12.642512 18.41,12.65 C18.1672117,12.6516369 17.9431508,12.7807568 17.82,12.99 L17.82,12.9 C17.8394369,12.8083106 17.8012924,12.7139983 17.7235797,12.661601 C17.645867,12.6092037 17.544133,12.6092037 17.4664203,12.661601 C17.3887076,12.7139983 17.3505631,12.8083106 17.37,12.9 L17.37,14.44 C17.37,14.5615026 17.4684974,14.66 17.59,14.66 C17.6500602,14.6627329 17.7086222,14.6407665 17.7520691,14.5992086 C17.795516,14.5576507 17.8200621,14.5001223 17.82,14.44 L17.82,13.54 C17.8058523,13.4192974 17.843441,13.2982446 17.9234683,13.2067848 C18.0034957,13.115325 18.1184876,13.0619999 18.24,13.06 C18.48,13.06 18.63,13.23 18.63,13.53 L18.63,14.44 C18.6299379,14.5001223 18.654484,14.5576507 18.6979309,14.5992086 C18.7413778,14.6407665 18.7999398,14.6627329 18.86,14.66 C18.9815026,14.66 19.08,14.5615026 19.08,14.44 L19.08,13.54 C19.08,13.23 19.25,13.06 19.49,13.06 C19.73,13.06 19.89,13.23 19.89,13.54 L19.89,14.44 C19.8899379,14.5001223 19.914484,14.5576507 19.9579309,14.5992086 C20.0013778,14.6407665 20.0599398,14.6627329 20.12,14.66 C20.2415026,14.66 20.34,14.5615026 20.34,14.44 L20.34,13.44 C20.3867744,13.2313738 20.3295901,13.0130146 20.1865618,12.8540943 C20.0435336,12.6951741 19.8323836,12.615384 19.62,12.64 L19.62,12.64 Z" id="Path" fill="#264B67"></path>
                <path d="M21.7,12.64 C21.1477153,12.64 20.7,13.0877153 20.7,13.64 L20.7,13.64 C20.7,14.1922847 21.1477153,14.64 21.7,14.64 C21.9615733,14.6495943 22.2164815,14.5562476 22.41,14.38 C22.4476829,14.3430739 22.4692486,14.2927539 22.47,14.24 C22.47,14.1405887 22.3894113,14.06 22.29,14.06 C22.2505932,14.0502576 22.2094068,14.0502576 22.17,14.06 C22.0447451,14.1745548 21.8796484,14.2355688 21.71,14.23 C21.4226277,14.2418654 21.1763864,14.0264043 21.15,13.74 L22.37,13.74 C22.4274722,13.7400652 22.4824597,13.7165729 22.5221429,13.675 C22.5618261,13.6334272 22.5827368,13.577407 22.58,13.52 C22.5596607,13.0426679 22.1773321,12.6603393 21.7,12.64 Z M21.19,13.52 C21.1951001,13.2443266 21.4144816,13.0205575 21.69,13.01 C21.9677523,13.0154472 22.1900534,13.2421943 22.19,13.52 L21.19,13.52 Z" id="Shape" fill="#264B67"></path>
                <path d="M24.14,12.64 C23.8911303,12.6385899 23.6596907,12.767589 23.53,12.98 L23.53,12.89 C23.5494369,12.7983106 23.5112924,12.7039983 23.4335797,12.651601 C23.355867,12.5992037 23.254133,12.5992037 23.1764203,12.651601 C23.0987076,12.7039983 23.0605631,12.7983106 23.08,12.89 L23.08,14.43 C23.08,14.5515026 23.1784974,14.65 23.3,14.65 C23.3600602,14.6527329 23.4186222,14.6307665 23.4620691,14.5892086 C23.505516,14.5476507 23.5300621,14.4901223 23.53,14.43 L23.53,13.53 C23.5154034,13.4058114 23.555589,13.28142 23.640084,13.1892437 C23.724579,13.0970673 23.8450131,13.0462371 23.97,13.05 C24.23,13.05 24.39,13.22 24.39,13.53 L24.39,14.43 C24.39,14.5515026 24.4884974,14.65 24.61,14.65 C24.669187,14.6528924 24.7268412,14.6306442 24.7687427,14.5887427 C24.8106442,14.5468412 24.8328924,14.489187 24.83,14.43 L24.83,13.43 C24.8668002,13.2290931 24.8099477,13.0223723 24.6755865,12.8685384 C24.5412252,12.7147045 24.3440312,12.6305604 24.14,12.64 L24.14,12.64 Z" id="Path" fill="#264B67"></path>
                <path d="M26.26,13.07 C26.3666667,13.0701334 26.4546667,12.9865334 26.4600002,12.88 C26.4600723,12.8278274 26.4386877,12.7779206 26.4008626,12.7419868 C26.3630375,12.7060529 26.3121003,12.687254 26.26,12.69 L25.91,12.69 L25.91,12.35 C25.91,12.2284974 25.8115026,12.13 25.69,12.13 C25.6299398,12.1272671 25.5713778,12.1492335 25.5279309,12.1907914 C25.484484,12.2323493 25.4599379,12.2898777 25.46,12.35 L25.46,12.69 L25.39,12.69 C25.3387653,12.687065 25.2887139,12.7061384 25.2524262,12.7424262 C25.2161384,12.7787139 25.197065,12.8287653 25.2,12.88 C25.2,12.9849341 25.2850659,13.07 25.39,13.07 L25.46,13.07 L25.46,14.07 C25.4402044,14.226409 25.4938592,14.3831805 25.6053393,14.4946607 C25.7168195,14.6061408 25.873591,14.6597956 26.03,14.64 C26.1320511,14.6397286 26.2333771,14.622841 26.33,14.59 C26.4017985,14.5586774 26.4487016,14.4883227 26.45,14.41 C26.4446764,14.3089903 26.3611497,14.2298598 26.26,14.23 L26.15,14.23 C26.0837009,14.2403974 26.0164254,14.2184817 25.9689719,14.1710281 C25.9215183,14.1235746 25.8996026,14.0562991 25.91,13.99 L25.91,12.99 L26.26,13.07 Z" id="Path" fill="#264B67"></path>
                <path d="M41.86,15.08 L40.76,15.08 L40.76,13.63 C40.76,10.9569418 38.5930582,8.79 35.92,8.79 C33.2469418,8.79 31.08,10.9569418 31.08,13.63 L31.08,15.08 L30,15.08 C28.8954305,15.08 28,15.9754305 28,17.08 L28,27.61 C28,28.7145695 28.8954305,29.61 30,29.61 L41.86,29.61 C42.9645695,29.61 43.86,28.7145695 43.86,27.61 L43.86,17 C43.8170376,15.9267922 42.9340671,15.0791404 41.86,15.08 Z M36.55,22.91 L36.55,25.14 L35.35,25.14 L35.35,22.94 C34.6459394,22.6531059 34.2434907,21.9079344 34.389665,21.1618495 C34.5358393,20.4157646 35.1897306,19.8775531 35.95,19.8775531 C36.7102694,19.8775531 37.3641607,20.4157646 37.510335,21.1618495 C37.6565093,21.9079344 37.2540606,22.6531059 36.55,22.94 L36.55,22.91 Z M38.34,15.08 L33.5,15.08 L33.5,13.63 C33.5,12.2934709 34.5834709,11.21 35.92,11.21 C37.2565291,11.21 38.34,12.2934709 38.34,13.63 L38.34,15.08 Z" id="Shape" fill="#264B67"></path>
                <path d="M35.92,8.79 C37.2036478,8.79 38.4347207,9.29992711 39.3423968,10.2076032 C40.2500729,11.1152793 40.76,12.3463522 40.76,13.63 L40.76,15.08 L41.86,15.08 C42.9645695,15.08 43.86,15.9754305 43.86,17.08 L43.86,27.61 C43.86,28.7145695 42.9645695,29.61 41.86,29.61 L30,29.61 C28.8954305,29.61 28,28.7145695 28,27.61 L28,17 C28,15.8954305 28.8954305,15 30,15 L31.1,15 L31.1,13.63 C31.1,10.9569418 33.2669418,8.79 35.94,8.79 L35.92,8.79 Z M33.5,15.08 L38.34,15.08 L38.34,13.63 C38.34,12.2934709 37.2565291,11.21 35.92,11.21 C34.5834709,11.21 33.5,12.2934709 33.5,13.63 L33.5,15.08 L33.5,15.08 Z M35.35,25.14 L36.55,25.14 L36.55,22.91 C37.2481853,22.6233971 37.6461913,21.8830282 37.5001283,21.142576 C37.3540654,20.4021237 36.7047211,19.8683571 35.95,19.8683571 C35.1952789,19.8683571 34.5459346,20.4021237 34.3998717,21.142576 C34.2538087,21.8830282 34.6518147,22.6233971 35.35,22.91 L35.35,25.11 L35.35,25.14 Z M35.92,7.85 C32.7466455,7.85550453 30.1755045,10.4266455 30.17,13.6 L30.17,14.15 L30,14.15 C29.2388231,14.1446771 28.5067096,14.4419582 27.9647254,14.9764408 C27.4227412,15.5109235 27.1152859,16.2388229 27.11,17 L27.11,27.61 C27.1126397,28.3729146 27.4189294,29.1033832 27.961202,29.6400267 C28.5034745,30.1766701 29.2370994,30.4753211 30,30.4700699 L41.86,30.4700699 C43.4395344,30.4700699 44.72,29.1895344 44.72,27.61 L44.72,17 C44.72,15.4204656 43.4395344,14.14 41.86,14.14 L41.66,14.14 L41.66,13.59 C41.6600048,10.4182638 39.0917314,7.84551606 35.92,7.84 L35.92,7.85 Z M34.4,14.15 L34.4,13.6 C34.302619,13.0056435 34.5653562,12.4098479 35.0698893,12.0809267 C35.5744223,11.7520056 36.2255777,11.7520056 36.7301107,12.0809267 C37.2346438,12.4098479 37.497381,13.0056435 37.4,13.6 L37.4,14.15 L34.4,14.15 Z M35.94,22.15 L35.67,22.04 C35.4094521,21.940043 35.2381446,21.6890576 35.24,21.41 C35.24,21.0344464 35.5444464,20.73 35.92,20.73 C36.2955536,20.73 36.6,21.0344464 36.6,21.41 C36.5997493,21.6825435 36.4390949,21.9294027 36.19,22.04 L35.94,22.15 L35.94,22.15 Z" id="Shape" fill="#FFFFFF"></path>
            </g>
        </g>
    </g>
</svg>