<svg xmlns="http://www.w3.org/2000/svg" width="46" height="33" viewBox="0 0 46 33">
  <path fill="#B1BBCC" d="M23,0 C19.5777604,0 16.1503325,1.29392405 13.5392441,3.89213521 C11.3232209,6.09727931 10.0468279,8.88505941 9.71145576,11.7595709 C4.26243483,12.2518562 0,16.804353 0,22.3548439 C0,28.2339507 4.78956274,33 10.6976744,33 L36.9069767,33 C41.9445116,33 46,28.9644213 46,23.9516173 C46,18.9388133 41.9445116,14.9032186 36.9069767,14.9032186 L36.2718023,14.9032186 C36.7431418,10.9887818 35.4628441,6.89609715 32.4440139,3.89213521 C29.833086,1.29392405 26.4222395,0 23,0 Z M22.9999999,11.1773983 C23.2839162,11.1763494 23.4832674,11.2294155 23.7187767,11.4435428 L29.6024976,16.7661369 C30.0210441,17.1398883 30.0979604,17.869188 29.6860465,18.2797184 C29.2887348,18.6757714 28.5802279,18.723515 28.1649441,18.3462506 L24.0697674,14.6370897 L24.0697674,26.0806485 C24.0697674,26.6685805 23.5909395,27.1451641 22.9999999,27.1451641 C22.4090604,27.1451641 21.9302325,26.6685805 21.9302325,26.0806485 L21.9302325,14.6370897 L17.8350558,18.3462506 C17.419772,18.723515 16.6914209,18.6945069 16.3139534,18.2797184 C15.9365395,17.8648767 15.9578813,17.1469141 16.3975023,16.7661369 L22.2812232,11.4435428 C22.434093,11.3041978 22.7138906,11.1827365 22.9999999,11.1773983 Z"/>
</svg>
